<svg xmlns="http://www.w3.org/2000/svg" height="40px" viewBox="0 -960 960 960" width="40px" fill="#000000"><path d="M304.67-304.67 579.33-380l75.34-274.67L380-579.33l-75.33 274.66Zm174.94-142q-13.28 0-23.11-10.22-9.83-10.23-9.83-23.5 0-13.28 10.22-23.11 10.23-9.83 23.5-9.83 13.28 0 23.11 10.22 9.83 10.23 9.83 23.5 0 13.28-10.22 23.11-10.23 9.83-23.5 9.83Zm.33 388q-87.23 0-164.24-33.02-77.02-33.02-134.01-90-56.98-56.99-90-134.06-33.02-77.06-33.02-164.34 0-87.54 33.09-164.53 33.1-76.99 90.17-134.02Q239-835.67 315.97-868.5q76.96-32.83 164.12-32.83 87.53 0 164.51 32.76 76.98 32.76 134.02 90 57.05 57.24 89.88 134.29 32.83 77.06 32.83 164.49 0 87.44-32.83 164.11-32.83 76.68-89.86 133.63-57.03 56.94-134.13 90.16-77.09 33.22-164.57 33.22Zm.38-84q141.35 0 239.18-98.15 97.83-98.16 97.83-239.5 0-141.35-97.83-239.18-97.83-97.83-239.18-97.83-141.34 0-239.5 97.83-98.15 97.83-98.15 239.18 0 141.34 98.15 239.5 98.16 98.15 239.5 98.15ZM480-480Z"/></svg>